<?xml version="1.0" encoding="UTF-8"?>
<svg version="1.1" xmlns="http://www.w3.org/2000/svg" width="86" height="86">
<path d="M0 0 C9.28280513 7.57081238 15.04184134 16.33506615 16.75 28.25 C17.69621163 39.79378187 14.0427217 50.3092056 6.75 59.25 C-1.72113386 67.83658372 -10.81698143 71.58108094 -22.75 71.75 C-34.0239401 71.60265251 -43.13588002 68.28757168 -51.25 60.25 C-58.60510435 51.47825103 -62.66410713 42.11718196 -62.46484375 30.515625 C-61.41443807 19.43861969 -56.65748156 9.74819672 -48.63671875 2.109375 C-34.30113766 -9.05877001 -15.09271614 -10.5620155 0 0 Z M-39.25 5.25 C-39.25 15.81 -39.25 26.37 -39.25 37.25 C-36.30270463 38.40811388 -36.30270463 38.40811388 -33.25 38.25 C-33.25 29.34 -33.25 20.43 -33.25 11.25 C-30.6925 11.37375 -28.135 11.4975 -25.5 11.625 C-24.70110352 11.65899902 -23.90220703 11.69299805 -23.07910156 11.72802734 C-16.30531499 12.10510715 -16.30531499 12.10510715 -13.25 14.25 C-11.68064406 17.38871188 -11.89798897 19.78855822 -12.25 23.25 C-14.1875 26.25 -14.1875 26.25 -17.25 28.25 C-19.69828389 28.26266354 -21.86733569 27.9522404 -24.26171875 27.44921875 C-24.91785156 27.38347656 -25.57398438 27.31773438 -26.25 27.25 C-26.91 27.91 -27.57 28.57 -28.25 29.25 C-27.92673447 32.84679066 -27.92673447 32.84679066 -27.25 36.25 C-24.64417629 37.18065133 -23.60801776 37.39917407 -21 36.3125 C-20.4225 35.961875 -19.845 35.61125 -19.25 35.25 C-21.58317216 34.47227595 -23.86435923 33.82584432 -26.25 33.25 C-26.25 31.93 -26.25 30.61 -26.25 29.25 C-24.52073126 29.56193464 -22.79158956 29.87457362 -21.0625 30.1875 C-20.09957031 30.36152344 -19.13664062 30.53554688 -18.14453125 30.71484375 C-15.50760028 31.2023735 -12.8780095 31.71671105 -10.25 32.25 C-5.96673829 27.32424903 -4.520307 24.11440468 -4.8984375 17.546875 C-5.62821521 12.77899397 -7.45688634 10.84483524 -11.25 8 C-15.18910079 5.70219121 -17.87734332 5.12645863 -22.35546875 5.15234375 C-23.24129639 5.15484131 -24.12712402 5.15733887 -25.03979492 5.15991211 C-26.72165894 5.17356812 -26.72165894 5.17356812 -28.4375 5.1875 C-32.005625 5.208125 -35.57375 5.22875 -39.25 5.25 Z M-18.25 34.25 C-14.25 35.25 -14.25 35.25 -14.25 35.25 Z M-7.25 34.25 C-6.80123384 35.89846769 -6.34069512 37.54373455 -5.875 39.1875 C-5.61976562 40.10402344 -5.36453125 41.02054688 -5.1015625 41.96484375 C-4.48339896 44.41745087 -4.48339896 44.41745087 -2.25 45.25 C-2.50554054 43.78890937 -2.78000372 42.33111904 -3.0625 40.875 C-3.28873047 39.65683594 -3.28873047 39.65683594 -3.51953125 38.4140625 C-4.12544942 35.89179359 -4.12544942 35.89179359 -7.25 34.25 Z M-9.25 40.25 C-9.25 41.9 -9.25 43.55 -9.25 45.25 C-8.92 45.25 -8.59 45.25 -8.25 45.25 C-8.25 43.6 -8.25 41.95 -8.25 40.25 C-8.58 40.25 -8.91 40.25 -9.25 40.25 Z M-31.25 43.25 C-31.25 45.23 -31.25 47.21 -31.25 49.25 C-29.6 48.92 -27.95 48.59 -26.25 48.25 C-25.92 46.6 -25.59 44.95 -25.25 43.25 C-27.23 43.25 -29.21 43.25 -31.25 43.25 Z M-23.25 54.25 C-23.25 55.9 -23.25 57.55 -23.25 59.25 C-15.19066843 59.8396776 -15.19066843 59.8396776 -8.25 56.25 C-5.97462308 53.67816686 -5.97462308 53.67816686 -4.25 51.25 C-11.0718683 50.86385651 -16.74577707 52.24134292 -23.25 54.25 Z " fill="#049CDC" transform="translate(65.25,9.75)"/>
<path d="M0 0 C8.24675714 3.75344745 12.7714038 10.77716904 16 19 C19.45731929 29.87615027 18.53228225 40.63126675 13.59375 50.93359375 C9.6073868 57.71229154 4.6417287 62.7624071 -2 67 C-2.66 67 -3.32 67 -4 67 C-4.33 66.01 -4.66 65.02 -5 64 C-4.34 63.34 -3.68 62.68 -3 62 C-3 61.01 -3 60.02 -3 59 C-1.5 57.3125 -1.5 57.3125 0 56 C-0.65484375 56.37253906 -1.3096875 56.74507812 -1.984375 57.12890625 C-9.41735772 60.98187893 -14.79863517 61.44561579 -23 60 C-23 57.69 -23 55.38 -23 53 C-21.02 53 -19.04 53 -17 53 C-17 53.33 -17 53.66 -17 54 C-18.65 54 -20.3 54 -22 54 C-22 55.65 -22 57.3 -22 59 C-13.10774659 58.55765544 -13.10774659 58.55765544 -5.6875 54.375 C-5.130625 53.59125 -4.57375 52.8075 -4 52 C-6.97 52 -9.94 52 -13 52 C-13 51.34 -13 50.68 -13 50 C-15.475 50.495 -15.475 50.495 -18 51 C-18.33 50.01 -18.66 49.02 -19 48 C-16.525 47.505 -16.525 47.505 -14 47 C-14 47.66 -14 48.32 -14 49 C-13.01 48.34 -12.02 47.68 -11 47 C-12.485 42.545 -12.485 42.545 -14 38 C-15.65 38 -17.3 38 -19 38 C-19.33 38.99 -19.66 39.98 -20 41 C-26.75 38.375 -26.75 38.375 -29 35 C-29.33 36.32 -29.66 37.64 -30 39 C-36.15234375 39.09765625 -36.15234375 39.09765625 -38 39 C-39.70492881 37.29507119 -39.1280442 35.15465739 -39.13894653 32.88098145 C-39.1369223 32.16744507 -39.13489807 31.45390869 -39.1328125 30.71875 C-39.13376923 29.99006714 -39.13472595 29.26138428 -39.13571167 28.51062012 C-39.13639335 26.9672029 -39.13453988 25.42378283 -39.13037109 23.88037109 C-39.12502262 21.510026 -39.13031642 19.13987041 -39.13671875 16.76953125 C-39.13605797 15.27343708 -39.1347768 13.77734303 -39.1328125 12.28125 C-39.13483673 11.56771362 -39.13686096 10.85417725 -39.13894653 10.11901855 C-39.11495191 5.11495191 -39.11495191 5.11495191 -38 4 C-35.80427958 3.936671 -33.60655879 3.94080363 -31.41015625 3.97265625 C-30.0553411 3.985303 -28.70052325 3.99766392 -27.34570312 4.00976562 C-25.20149444 4.03460392 -23.05742365 4.062579 -20.91333008 4.09594727 C-18.84976298 4.12609486 -16.78637293 4.14390849 -14.72265625 4.16015625 C-12.86265991 4.18541382 -12.86265991 4.18541382 -10.96508789 4.21118164 C-7.88011072 4.31683425 -7.88011072 4.31683425 -6 2 C-5.01 2 -4.02 2 -3 2 C-3 2.99 -3 3.98 -3 5 C-1.35 5 0.3 5 2 5 C1.34 3.35 0.68 1.7 0 0 Z M-38 5 C-38 15.56 -38 26.12 -38 37 C-35.05270463 38.15811388 -35.05270463 38.15811388 -32 38 C-32 29.09 -32 20.18 -32 11 C-29.4425 11.12375 -26.885 11.2475 -24.25 11.375 C-23.45110352 11.40899902 -22.65220703 11.44299805 -21.82910156 11.47802734 C-15.05531499 11.85510715 -15.05531499 11.85510715 -12 14 C-10.43064406 17.13871188 -10.64798897 19.53855822 -11 23 C-12.9375 26 -12.9375 26 -16 28 C-18.44828389 28.01266354 -20.61733569 27.7022404 -23.01171875 27.19921875 C-23.66785156 27.13347656 -24.32398438 27.06773438 -25 27 C-25.66 27.66 -26.32 28.32 -27 29 C-26.67673447 32.59679066 -26.67673447 32.59679066 -26 36 C-23.39417629 36.93065133 -22.35801776 37.14917407 -19.75 36.0625 C-19.1725 35.711875 -18.595 35.36125 -18 35 C-20.33317216 34.22227595 -22.61435923 33.57584432 -25 33 C-25 31.68 -25 30.36 -25 29 C-23.27073126 29.31193464 -21.54158956 29.62457362 -19.8125 29.9375 C-18.84957031 30.11152344 -17.88664062 30.28554688 -16.89453125 30.46484375 C-14.25760028 30.9523735 -11.6280095 31.46671105 -9 32 C-4.71673829 27.07424903 -3.270307 23.86440468 -3.6484375 17.296875 C-4.37821521 12.52899397 -6.20688634 10.59483524 -10 7.75 C-13.93910079 5.45219121 -16.62734332 4.87645863 -21.10546875 4.90234375 C-21.99129639 4.90484131 -22.87712402 4.90733887 -23.78979492 4.90991211 C-25.47165894 4.92356812 -25.47165894 4.92356812 -27.1875 4.9375 C-30.755625 4.958125 -34.32375 4.97875 -38 5 Z M-17 34 C-13 35 -13 35 -13 35 Z M-6 34 C-5.55123384 35.64846769 -5.09069512 37.29373455 -4.625 38.9375 C-4.36976562 39.85402344 -4.11453125 40.77054688 -3.8515625 41.71484375 C-3.23339896 44.16745087 -3.23339896 44.16745087 -1 45 C-1.25554054 43.53890937 -1.53000372 42.08111904 -1.8125 40.625 C-2.03873047 39.40683594 -2.03873047 39.40683594 -2.26953125 38.1640625 C-2.87544942 35.64179359 -2.87544942 35.64179359 -6 34 Z M-8 40 C-8 41.65 -8 43.3 -8 45 C-7.67 45 -7.34 45 -7 45 C-7 43.35 -7 41.7 -7 40 C-7.33 40 -7.66 40 -8 40 Z " fill="#0A9DDB" transform="translate(64,10)"/>
<path d="M0 0 C2.97 0 5.94 0 9 0 C9 2.97 9 5.94 9 9 C12.3 9.33 15.6 9.66 19 10 C19 10.33 19 10.66 19 11 C15.7 11 12.4 11 9 11 C9 13.31 9 15.62 9 18 C18.02984567 18.63690134 24.28514567 17.8762059 32 13 C32 13.99 32 14.98 32 16 C31.01 16.33 30.02 16.66 29 17 C29.495 19.475 29.495 19.475 30 22 C29.01 22.495 29.01 22.495 28 23 C28 23.99 28 24.98 28 26 C18.15615214 30.29549725 6.2530804 30.78780233 -4 27.4375 C-12.7040873 23.67321339 -18.81233484 17.83235721 -24 10 C-23.67 9.34 -23.34 8.68 -23 8 C-18 13 -18 13 -16.4375 14.75 C-14.69524203 16.26500693 -13.25120518 16.61186118 -11 17 C-10.67 16.34 -10.34 15.68 -10 15 C-8.02 15 -6.04 15 -4 15 C-4 14.34 -4 13.68 -4 13 C-5.32 13 -6.64 13 -8 13 C-8 12.34 -8 11.68 -8 11 C-6.35 11 -4.7 11 -3 11 C-3 10.34 -3 9.68 -3 9 C-3.66 8.67 -4.32 8.34 -5 8 C-4.01 8 -3.02 8 -2 8 C-1.34 5.36 -0.68 2.72 0 0 Z M2 1 C2 2.98 2 4.96 2 7 C3.65 6.67 5.3 6.34 7 6 C7.33 4.35 7.66 2.7 8 1 C6.02 1 4.04 1 2 1 Z " fill="#0D9DDA" transform="translate(32,52)"/>
<path d="M0 0 C0.33 0 0.66 0 1 0 C1.33 10.56 1.66 21.12 2 32 C3.65 32.33 5.3 32.66 7 33 C7 24.09 7 15.18 7 6 C9.536875 5.938125 12.07375 5.87625 14.6875 5.8125 C15.47729248 5.78518799 16.26708496 5.75787598 17.08081055 5.72973633 C21.60318145 5.67655887 24.43303549 6.18325747 28 9 C29.55024464 12.10048928 29.28992015 14.57894218 29 18 C27.32727217 20.74805286 26.1034211 22.46731395 23.1875 23.875 C20.05822184 24.0538159 17.09058068 23.46650274 14 23 C12.58422523 24.18424326 12.58422523 24.18424326 12.9375 27.5625 C12.958125 28.696875 12.97875 29.83125 13 31 C14.65 30.67 16.3 30.34 18 30 C17.360625 29.896875 16.72125 29.79375 16.0625 29.6875 C15.0415625 29.3471875 15.0415625 29.3471875 14 29 C13.67 28.01 13.34 27.02 13 26 C14.1328125 24.4296875 14.1328125 24.4296875 16 23 C18.7421875 23.2578125 18.7421875 23.2578125 21.875 24.125 C23.41800781 24.53105469 23.41800781 24.53105469 24.9921875 24.9453125 C27.96062035 25.98619155 30.37319475 27.28433753 33 29 C32.67 29.66 32.34 30.32 32 31 C31.93384814 32.26693309 31.93384814 32.26693309 33 34.3125 C34 37 34 37 34 41 C33.01 40.67 32.02 40.34 31 40 C30.67 39.01 30.34 38.02 30 37 C29.484375 36.484375 28.96875 35.96875 28.4375 35.4375 C27.963125 34.963125 27.48875 34.48875 27 34 C27 33.34 27 32.68 27 32 C23.535 32.495 23.535 32.495 20 33 C19.67 33.99 19.34 34.98 19 36 C12.25 33.375 12.25 33.375 10 30 C9.67 31.32 9.34 32.64 9 34 C2.84765625 34.09765625 2.84765625 34.09765625 1 34 C0 33 0 33 -0.11352539 29.85717773 C-0.11336633 28.46597303 -0.10767506 27.07476239 -0.09765625 25.68359375 C-0.0962413 24.95253922 -0.09482635 24.22148468 -0.09336853 23.46827698 C-0.08775408 21.12464368 -0.07519922 18.78110461 -0.0625 16.4375 C-0.05748686 14.85221492 -0.05292363 13.26692834 -0.04882812 11.68164062 C-0.03777997 7.7877239 -0.02050572 3.89387795 0 0 Z M22 29 C26 30 26 30 26 30 Z " fill="#7EC3E0" transform="translate(25,15)"/>
<path d="M0 0 C1.22589844 -0.00386719 1.22589844 -0.00386719 2.4765625 -0.0078125 C3.3221875 -0.00007812 4.1678125 0.00765625 5.0390625 0.015625 C5.87695312 0.00789062 6.71484375 0.00015625 7.578125 -0.0078125 C14.006028 0.01240103 18.9419354 1.30590409 24.6640625 4.265625 C25.6540625 4.595625 26.6440625 4.925625 27.6640625 5.265625 C28.3515625 7.328125 28.3515625 7.328125 28.6640625 9.265625 C28.0040625 9.265625 27.3440625 9.265625 26.6640625 9.265625 C26.3340625 9.925625 26.0040625 10.585625 25.6640625 11.265625 C25.6640625 10.605625 25.6640625 9.945625 25.6640625 9.265625 C25.0040625 9.265625 24.3440625 9.265625 23.6640625 9.265625 C23.6640625 8.275625 23.6640625 7.285625 23.6640625 6.265625 C22.97094971 6.76360596 22.27783691 7.26158691 21.5637207 7.7746582 C18.06656173 9.57285218 16.15815059 9.47125379 12.26953125 9.12109375 C11.06748047 9.02119141 9.86542969 8.92128906 8.62695312 8.81835938 C6.75813477 8.63756836 6.75813477 8.63756836 4.8515625 8.453125 C3.58634766 8.34419922 2.32113281 8.23527344 1.01757812 8.12304688 C-2.10191813 7.85229814 -5.21917551 7.56597848 -8.3359375 7.265625 C-8.3359375 5.615625 -8.3359375 3.965625 -8.3359375 2.265625 C-5.43071952 0.61323612 -3.33471558 0.01020906 0 0 Z " fill="#029BDB" transform="translate(37.3359375,5.734375)"/>
<path d="M0 0 C1.15113281 -0.03738281 2.30226563 -0.07476563 3.48828125 -0.11328125 C6.6875 0.3125 6.6875 0.3125 9.046875 2.140625 C11.14412457 4.91698395 11.61375468 6.84646988 11.6875 10.3125 C10.5703125 11.98046875 10.5703125 11.98046875 8.6875 13.3125 C5.83984375 13.640625 5.83984375 13.640625 2.625 13.5625 C1.56152344 13.54703125 0.49804688 13.5315625 -0.59765625 13.515625 C-3.3125 13.3125 -3.3125 13.3125 -5.3125 12.3125 C-5.3125 12.9725 -5.3125 13.6325 -5.3125 14.3125 C-5.9725 14.3125 -6.6325 14.3125 -7.3125 14.3125 C-7.33935938 12.16673363 -7.35883088 10.02087355 -7.375 7.875 C-7.38660156 6.68003906 -7.39820313 5.48507813 -7.41015625 4.25390625 C-7.23622253 -0.98497729 -4.680897 0.09892886 0 0 Z " fill="#039BDC" transform="translate(41.3125,22.6875)"/>
<path d="M0 0 C1.796875 1.63671875 1.796875 1.63671875 3 3 C0.28569464 4.35715268 -1.11338282 3.77445827 -4 3 C-4.99 2.34 -5.98 1.68 -7 1 C-9.30705292 -0.15352646 -10.64601799 -0.12900617 -13.2109375 -0.1328125 C-14.04367188 -0.13410156 -14.87640625 -0.13539062 -15.734375 -0.13671875 C-16.60578125 -0.13285156 -17.4771875 -0.12898437 -18.375 -0.125 C-19.67050781 -0.13080078 -19.67050781 -0.13080078 -20.9921875 -0.13671875 C-22.24515625 -0.13478516 -22.24515625 -0.13478516 -23.5234375 -0.1328125 C-24.6669165 -0.13112061 -24.6669165 -0.13112061 -25.83349609 -0.12939453 C-28.00497464 0.00029711 -29.91266954 0.40336595 -32 1 C-32 2.65 -32 4.3 -32 6 C-32.58007812 6.00257812 -33.16015625 6.00515625 -33.7578125 6.0078125 C-38.38563743 6.23691274 -41.16965693 6.61626351 -44.4375 10.0625 C-45.7059375 11.5165625 -45.7059375 11.5165625 -47 13 C-47.66 13 -48.32 13 -49 13 C-49.33 13.99 -49.66 14.98 -50 16 C-50.66 16 -51.32 16 -52 16 C-49.16271849 7.89548796 -43.24457826 3.37392366 -35.75 -0.4375 C-24.48488809 -5.79280579 -11.15068086 -5.99649924 0 0 Z " fill="#0A98D3" transform="translate(61,7)"/>
<path d="M0 0 C2.3125 0.5 2.3125 0.5 5 2 C6.34219295 4.5690412 7.20425705 7.21813439 8 10 C8.66 9.01 9.32 8.02 10 7 C10.33 8.65 10.66 10.3 11 12 C10.01 12.33 9.02 12.66 8 13 C8.33 13.99 8.66 14.98 9 16 C5.7 16 2.4 16 -1 16 C-1.12375 15.13375 -1.2475 14.2675 -1.375 13.375 C-1.98058121 10.10486147 -2.88306035 7.12743101 -4 4 C-6.31 4 -8.62 4 -11 4 C-11 3.67 -11 3.34 -11 3 C-9.56344146 2.91868537 -8.1255517 2.86066441 -6.6875 2.8125 C-5.48673828 2.76029297 -5.48673828 2.76029297 -4.26171875 2.70703125 C-2 3 -2 3 -0.25 4.3125 C1.53582522 6.72336404 1.67391585 9.06524268 2 12 C2.99 12 3.98 12 5 12 C4.54738642 10.56068883 4.08767021 9.12361001 3.625 7.6875 C3.36976562 6.88699219 3.11453125 6.08648437 2.8515625 5.26171875 C2.01168189 2.77275472 2.01168189 2.77275472 0 0 Z " fill="#1099D2" transform="translate(54,44)"/>
<path d="M0 0 C1.03382812 0.28617188 2.06765625 0.57234375 3.1328125 0.8671875 C4.67582031 1.27324219 4.67582031 1.27324219 6.25 1.6875 C9.21843285 2.72837905 11.63100725 4.02652503 14.2578125 5.7421875 C13.9278125 6.4021875 13.5978125 7.0621875 13.2578125 7.7421875 C13.19166064 9.00912059 13.19166064 9.00912059 14.2578125 11.0546875 C15.2578125 13.7421875 15.2578125 13.7421875 15.2578125 17.7421875 C14.2678125 17.4121875 13.2778125 17.0821875 12.2578125 16.7421875 C11.2578125 13.7421875 10.2578125 10.7421875 9.2578125 7.7421875 C7.9790625 7.7628125 6.7003125 7.7834375 5.3828125 7.8046875 C1.5078125 7.8671875 1.5078125 7.8671875 -0.7421875 6.7421875 C-1.4228125 6.6184375 -2.1034375 6.4946875 -2.8046875 6.3671875 C-3.4440625 6.1609375 -4.0834375 5.9546875 -4.7421875 5.7421875 C-5.0721875 4.7521875 -5.4021875 3.7621875 -5.7421875 2.7421875 C-3.87069414 0.14791049 -3.26784003 -0.30723282 0 0 Z M3.2578125 5.7421875 C7.2578125 6.7421875 7.2578125 6.7421875 7.2578125 6.7421875 Z " fill="#BADFEE" transform="translate(43.7421875,38.2578125)"/>
<path d="M0 0 C6.93 0 13.86 0 21 0 C21 0.33 21 0.66 21 1 C11.595 1.495 11.595 1.495 2 2 C2 12.89 2 23.78 2 35 C5.96 35.495 5.96 35.495 10 36 C10 33.69 10 31.38 10 29 C11.33333333 31 12.66666667 33 14 35 C16.05003955 36.19232613 16.05003955 36.19232613 18 37 C17.67 37.66 17.34 38.32 17 39 C14.36 39 11.72 39 9 39 C9 38.34 9 37.68 9 37 C7.700625 37.020625 6.40125 37.04125 5.0625 37.0625 C3.70834367 37.08399454 2.35243917 37.07148199 1 37 C0 36 0 36 -0.11352539 32.58178711 C-0.11336628 31.06363012 -0.10767226 29.54546771 -0.09765625 28.02734375 C-0.0962413 27.22970108 -0.09482635 26.43205841 -0.09336853 25.61024475 C-0.08775316 23.05262565 -0.07519812 20.49509282 -0.0625 17.9375 C-0.05748698 16.20768355 -0.05292373 14.47786574 -0.04882812 12.74804688 C-0.03862791 8.49863761 -0.01905568 4.24941584 0 0 Z " fill="#1496CA" transform="translate(24,13)"/>
<path d="M0 0 C1.32 0 2.64 0 4 0 C4 0.66 4 1.32 4 2 C4.84304687 2.06058594 5.68609375 2.12117188 6.5546875 2.18359375 C8.19824219 2.30927734 8.19824219 2.30927734 9.875 2.4375 C11.51082031 2.55931641 11.51082031 2.55931641 13.1796875 2.68359375 C16 3 16 3 18 4 C18 5.65 18 7.3 18 9 C9.95934863 13.57430757 4.11230875 14.60618357 -5 13 C-5 10.69 -5 8.38 -5 6 C-3.02 6 -1.04 6 1 6 C1 6.33 1 6.66 1 7 C-0.65 7 -2.3 7 -4 7 C-4 8.65 -4 10.3 -4 12 C4.89225341 11.55765544 4.89225341 11.55765544 12.3125 7.375 C12.869375 6.59125 13.42625 5.8075 14 5 C11.03 5 8.06 5 5 5 C5 4.34 5 3.68 5 3 C3.35 3.33 1.7 3.66 0 4 C-0.33 3.01 -0.66 2.02 -1 1 C-0.67 0.67 -0.34 0.34 0 0 Z " fill="#7AC6E3" transform="translate(46,57)"/>
<path d="M0 0 C0.99 0.33 1.98 0.66 3 1 C2.7215625 1.87591797 2.7215625 1.87591797 2.4375 2.76953125 C1.86007422 5.7133716 2.78581667 7.92929101 3.5859375 10.76171875 C4.29046966 14.57018035 3.64821645 18.2158175 3 22 C2.67 22 2.34 22 2 22 C1.91363281 21.18015625 1.82726563 20.3603125 1.73828125 19.515625 C1.03228221 12.89519538 1.03228221 12.89519538 -2.3125 7.375 C-6.72610001 5.11687907 -10.3139968 3.76091239 -15.30078125 3.5859375 C-16.27724609 3.54726562 -17.25371094 3.50859375 -18.25976562 3.46875 C-19.26716797 3.4378125 -20.27457031 3.406875 -21.3125 3.375 C-22.33923828 3.33632812 -23.36597656 3.29765625 -24.42382812 3.2578125 C-26.94904265 3.16385103 -29.47425592 3.0781846 -32 3 C-32 2.67 -32 2.34 -32 2 C-31.10168457 2.01047363 -30.20336914 2.02094727 -29.27783203 2.03173828 C-25.94935553 2.0657947 -22.62106378 2.09088618 -19.29248047 2.10986328 C-17.85104453 2.11992963 -16.40962905 2.1335838 -14.96826172 2.15087891 C-12.89806066 2.17510012 -10.82812924 2.18647641 -8.7578125 2.1953125 C-7.5114502 2.20578613 -6.26508789 2.21625977 -4.98095703 2.22705078 C-1.88228369 2.31652492 -1.88228369 2.31652492 0 0 Z " fill="#68C0E8" transform="translate(58,12)"/>
<path d="M0 0 C1.796875 1.63671875 1.796875 1.63671875 3 3 C0.28569464 4.35715268 -1.11338282 3.77445827 -4 3 C-6 1.66666667 -8 0.33333333 -10 -1 C-12.02750009 -1.29019578 -12.02750009 -1.29019578 -14.23828125 -1.23046875 C-15.46901367 -1.22756836 -15.46901367 -1.22756836 -16.72460938 -1.22460938 C-17.57861328 -1.21236328 -18.43261719 -1.20011719 -19.3125 -1.1875 C-20.15490234 -1.18685547 -20.99730469 -1.18621094 -21.86523438 -1.18554688 C-26.34951628 -1.15399212 -30.58794562 -0.89968482 -35 0 C-26.89444244 -8.10555756 -9.10780304 -4.89790127 0 0 Z " fill="#84BFD9" transform="translate(61,7)"/>
<path d="M0 0 C2.97 0 5.94 0 9 0 C9.04241723 2.33294775 9.04092937 4.66702567 9 7 C7.41727399 8.58272601 5.61965997 8.34735747 3.4375 8.5625 C2.61121094 8.64628906 1.78492188 8.73007812 0.93359375 8.81640625 C0.29550781 8.87699219 -0.34257812 8.93757813 -1 9 C-1 9.66 -1 10.32 -1 11 C-0.34 11 0.32 11 1 11 C1 12.32 1 13.64 1 15 C-0.32 15 -1.64 15 -3 15 C-3 13.02 -3 11.04 -3 9 C-3.66 8.67 -4.32 8.34 -5 8 C-4.01 8 -3.02 8 -2 8 C-1.34 5.36 -0.68 2.72 0 0 Z M2 1 C2 2.98 2 4.96 2 7 C3.65 6.67 5.3 6.34 7 6 C7.33 4.35 7.66 2.7 8 1 C6.02 1 4.04 1 2 1 Z " fill="#22A7DD" transform="translate(32,52)"/>
<path d="M0 0 C1.1402476 2.850619 0.97933605 4.06750225 0.0625 7.0625 C-1.27113422 11.48774081 -1.44723401 15.84150845 -1.625 20.4375 C-1.68300781 21.67790039 -1.68300781 21.67790039 -1.7421875 22.94335938 C-1.83553092 24.96191073 -1.91880961 26.98092331 -2 29 C-2.66 29 -3.32 29 -4 29 C-6.04476148 18.7761926 -4.97732328 9.2621494 0 0 Z " fill="#6AB4D3" transform="translate(8,23)"/>
<path d="M0 0 C0 0.66 0 1.32 0 2 C-0.99 2 -1.98 2 -3 2 C-3.33 2.99 -3.66 3.98 -4 5 C-4.66 5 -5.32 5 -6 5 C-6.2475 5.5775 -6.495 6.155 -6.75 6.75 C-8.18299988 9.32939979 -9.78424676 11.06121592 -12 13 C-12.66 13 -13.32 13 -14 13 C-14.33 13.99 -14.66 14.98 -15 16 C-15.66 16 -16.32 16 -17 16 C-14.73289524 9.32657368 -9.8195029 4.96139332 -4.125 1 C-2 0 -2 0 0 0 Z " fill="#58AED6" transform="translate(26,7)"/>
<path d="M0 0 C0.80050781 0.22042969 1.60101563 0.44085938 2.42578125 0.66796875 C3.23402344 0.88066406 4.04226562 1.09335937 4.875 1.3125 C5.79732422 1.58126953 5.79732422 1.58126953 6.73828125 1.85546875 C6.73828125 2.51546875 6.73828125 3.17546875 6.73828125 3.85546875 C7.39828125 4.18546875 8.05828125 4.51546875 8.73828125 4.85546875 C5.76828125 4.85546875 2.79828125 4.85546875 -0.26171875 4.85546875 C-0.26171875 5.51546875 -0.26171875 6.17546875 -0.26171875 6.85546875 C-2.19921875 6.54296875 -2.19921875 6.54296875 -4.26171875 5.85546875 C-4.59171875 4.86546875 -4.92171875 3.87546875 -5.26171875 2.85546875 C-2.89519796 -0.18501265 -2.89519796 -0.18501265 0 0 Z " fill="#6CB8D8" transform="translate(43.26171875,38.14453125)"/>
<path d="M0 0 C3.01614813 1.1170919 4.64508669 2.6125776 6.625 5.0625 C8.67119397 8.00824713 8.67119397 8.00824713 11 9 C12.04808041 10.97522846 13.0520411 12.97481509 14 15 C8.39000551 13.64000133 5.30115275 9.44974971 2 5 C0.5625 2 0.5625 2 0 0 Z " fill="#59B3D6" transform="translate(8,60)"/>
<path d="M0 0 C1.32 0.33 2.64 0.66 4 1 C2.58426179 4.39187279 0.95769034 6.09697541 -2 8.25 C-2.70125 8.77078125 -3.4025 9.2915625 -4.125 9.828125 C-6 11 -6 11 -8 11 C-8.33 10.01 -8.66 9.02 -9 8 C-7.8125 6.5 -7.8125 6.5 -6 5 C-3.3125 4.8125 -3.3125 4.8125 -1 5 C-0.67 3.35 -0.34 1.7 0 0 Z " fill="#4DACD5" transform="translate(68,66)"/>
<path d="M0 0 C0.33 0 0.66 0 1 0 C1.33 2.31 1.66 4.62 2 7 C6.95 7 11.9 7 17 7 C17 7.99 17 8.98 17 10 C16.67 9.34 16.34 8.68 16 8 C13.69 8.33 11.38 8.66 9 9 C8.67 9.99 8.34 10.98 8 12 C1.42181818 9.68545455 1.42181818 9.68545455 -0.5 6.5625 C-1.01296223 3.93356855 -0.9214475 2.48790824 0 0 Z " fill="#5CB5DC" transform="translate(36,39)"/>
<path d="M0 0 C0.33 0 0.66 0 1 0 C3.16460557 8.65842228 1.80337042 16.64132673 -1 25 C-1.66 25.66 -2.32 26.32 -3 27 C-2.85892253 25.54119891 -2.71197585 24.08296449 -2.5625 22.625 C-2.48128906 21.81289063 -2.40007812 21.00078125 -2.31640625 20.1640625 C-2 18 -2 18 -1 16 C-0.7677354 13.28737884 -0.58063765 10.59226874 -0.4375 7.875 C-0.39431641 7.12089844 -0.35113281 6.36679687 -0.30664062 5.58984375 C-0.2005168 3.72678112 -0.09974999 1.86341476 0 0 Z " fill="#93C9E0" transform="translate(80,33)"/>
<path d="M0 0 C2.52686664 6.83824362 3.27766314 11.79862595 2 19 C1.67 19 1.34 19 1 19 C0.89042969 18.16855469 0.78085937 17.33710937 0.66796875 16.48046875 C0.50941406 15.39378906 0.35085937 14.30710937 0.1875 13.1875 C-0.03873047 11.56908203 -0.03873047 11.56908203 -0.26953125 9.91796875 C-1.04037311 6.83872348 -1.74072762 6.06119918 -4 4 C-4 3.01 -4 2.02 -4 1 C-2 0 -2 0 0 0 Z " fill="#5CB8DE" transform="translate(59,15)"/>
<path d="M0 0 C0.33 0.66 0.66 1.32 1 2 C3.35599235 2.46751788 3.35599235 2.46751788 6.0625 2.625 C7.44115234 2.73714844 7.44115234 2.73714844 8.84765625 2.8515625 C9.55792969 2.90054688 10.26820312 2.94953125 11 3 C11 3.33 11 3.66 11 4 C7.7 4 4.4 4 1 4 C1 6.31 1 8.62 1 11 C3.64 11 6.28 11 9 11 C9 11.33 9 11.66 9 12 C6.03 12 3.06 12 0 12 C-0.33 9.03 -0.66 6.06 -1 3 C-3.97 2.505 -3.97 2.505 -7 2 C-7 1.67 -7 1.34 -7 1 C-3.535 0.505 -3.535 0.505 0 0 Z " fill="#239BCC" transform="translate(40,59)"/>
<path d="M0 0 C3.22446551 0.93044278 4.66303207 1.41103027 6.36328125 4.3828125 C6.67652344 5.28773437 6.98976563 6.19265625 7.3125 7.125 C7.63863281 8.03507812 7.96476562 8.94515625 8.30078125 9.8828125 C8.53152344 10.58148438 8.76226562 11.28015625 9 12 C6.36 12.33 3.72 12.66 1 13 C1 11.35 1 9.7 1 8 C1.33 9.32 1.66 10.64 2 12 C2.99 12 3.98 12 5 12 C4.54738642 10.56068883 4.08767021 9.12361001 3.625 7.6875 C3.36976562 6.88699219 3.11453125 6.08648437 2.8515625 5.26171875 C2.01168189 2.77275472 2.01168189 2.77275472 0 0 Z " fill="#57ADD0" transform="translate(54,44)"/>
<path d="M0 0 C2 3 2 3 4 6 C6.05003955 7.19232613 6.05003955 7.19232613 8 8 C7.67 8.66 7.34 9.32 7 10 C4.36 10 1.72 10 -1 10 C-0.67 6.7 -0.34 3.4 0 0 Z " fill="#039CDA" transform="translate(34,42)"/>
<path d="M0 0 C0.66 0 1.32 0 2 0 C1.01158836 2.6956681 0.30627815 3.81623311 -2.1875 5.3125 C-5.71082647 6.17375758 -8.45192409 5.60250346 -12 5 C-12.99 5.495 -12.99 5.495 -14 6 C-14.33 4.68 -14.66 3.36 -15 2 C-13.04174127 1.97305149 -11.08337774 1.95362782 -9.125 1.9375 C-8.03445312 1.92589844 -6.94390625 1.91429687 -5.8203125 1.90234375 C-3 2 -3 2 -1 3 C-0.67 2.01 -0.34 1.02 0 0 Z " fill="#75C6E4" transform="translate(51,33)"/>
<path d="M0 0 C5.70709064 0.46588495 9.15939723 1.93757784 14 5 C13.34 5.66 12.68 6.32 12 7 C6.58130896 6.44423682 3.67915955 3.80602712 0 0 Z " fill="#5EB1D6" transform="translate(50,4)"/>
<path d="M0 0 C0.33 0 0.66 0 1 0 C1 1.98 1 3.96 1 6 C1.99 6 2.98 6 4 6 C5.60725635 9.21451269 5.05748185 12.43612536 5 16 C4.67 16 4.34 16 4 16 C3.773125 14.9275 3.54625 13.855 3.3125 12.75 C1.86973455 8.62781299 0.58089925 7.35585477 -3 5 C-1.125 1.125 -1.125 1.125 0 0 Z " fill="#91CBE2" transform="translate(58,37)"/>
<path d="M0 0 C2.64 0 5.28 0 8 0 C8.04241723 2.33294775 8.04092937 4.66702567 8 7 C7 8 7 8 3.4375 8.0625 C2.303125 8.041875 1.16875 8.02125 0 8 C0 5.36 0 2.72 0 0 Z M1 1 C1 2.98 1 4.96 1 7 C2.65 6.67 4.3 6.34 6 6 C6.33 4.35 6.66 2.7 7 1 C5.02 1 3.04 1 1 1 Z " fill="#C0E3EF" transform="translate(33,52)"/>
<path d="M0 0 C1.32 0 2.64 0 4 0 C4 0.66 4 1.32 4 2 C7.96 2.33 11.92 2.66 16 3 C15.67 3.66 15.34 4.32 15 5 C11.7 5 8.4 5 5 5 C5 4.34 5 3.68 5 3 C3.35 3.33 1.7 3.66 0 4 C-0.33 3.01 -0.66 2.02 -1 1 C-0.67 0.67 -0.34 0.34 0 0 Z " fill="#4CB8E4" transform="translate(46,57)"/>
<path d="M0 0 C2.31 0.33 4.62 0.66 7 1 C7 1.66 7 2.32 7 3 C9.97 3 12.94 3 16 3 C11.39322158 5.30338921 9.90449703 5.1185695 5 4 C2.0625 2.5 2.0625 2.5 0 1 C0 0.67 0 0.34 0 0 Z " fill="#6FB8DB" transform="translate(22,75)"/>
<path d="M0 0 C1.65 0 3.3 0 5 0 C5 1.65 5 3.3 5 5 C3.35 5 1.7 5 0 5 C0 3.35 0 1.7 0 0 Z " fill="#76D2F6" transform="translate(22,55)"/>
<path d="M0 0 C4.875 1.75 4.875 1.75 6 4 C6.04022391 6.3329866 6.04320247 8.66706666 6 11 C1.33333333 4 1.33333333 4 0 0 Z " fill="#87C6E2" transform="translate(48,22)"/>
<path d="M0 0 C0.33 0.99 0.66 1.98 1 3 C0.01 4.485 0.01 4.485 -1 6 C-0.34 6.33 0.32 6.66 1 7 C-1.31 7 -3.62 7 -6 7 C-6.33 6.34 -6.66 5.68 -7 5 C-6.401875 4.9175 -5.80375 4.835 -5.1875 4.75 C-2.4033704 3.79544128 -1.56688858 2.42867729 0 0 Z " fill="#0B98CE" transform="translate(44,29)"/>
<path d="M0 0 C3.7952131 1.49097658 5.61042731 3.75700849 8 7 C7.01 7.495 7.01 7.495 6 8 C6 7.34 6 6.68 6 6 C5.071875 5.9071875 5.071875 5.9071875 4.125 5.8125 C2 5 2 5 0.75 2.4375 C0.5025 1.633125 0.255 0.82875 0 0 Z M0 5 C0.99 5.495 0.99 5.495 2 6 C1.01 6.495 1.01 6.495 0 7 C0 6.34 0 5.68 0 5 Z " fill="#57B1D8" transform="translate(64,10)"/>
<path d="M0 0 C3.80881639 1.44472346 5.29742886 3.32603071 7 7 C6.67 7.99 6.34 8.98 6 10 C4.99421411 8.71283353 3.99553202 7.42011342 3 6.125 C2.443125 5.40570313 1.88625 4.68640625 1.3125 3.9453125 C0 2 0 2 0 0 Z " fill="#72BCD8" transform="translate(8,60)"/>
<path d="M0 0 C2.0625 0.4375 2.0625 0.4375 4 1 C3.1875 2.9375 3.1875 2.9375 2 5 C1.01 5.33 0.02 5.66 -1 6 C-1.042721 4.33388095 -1.04063832 2.66617115 -1 1 C-0.67 0.67 -0.34 0.34 0 0 Z " fill="#5DB5DA" transform="translate(68,66)"/>
<path d="M0 0 C3.16115776 1.36983503 3.9927092 1.9890638 6 5 C5.67 5.99 5.34 6.98 5 8 C2.5 5.6875 2.5 5.6875 0 3 C0 2.01 0 1.02 0 0 Z " fill="#0A96D4" transform="translate(8,57)"/>
<path d="M0 0 C0.66 0 1.32 0 2 0 C1.125 4.75 1.125 4.75 0 7 C-0.99 7 -1.98 7 -3 7 C-2.125 3.125 -2.125 3.125 -1 2 C-0.67 1.34 -0.34 0.68 0 0 Z " fill="#0998D7" transform="translate(30,53)"/>
<path d="M0 0 C-0.33 0.66 -0.66 1.32 -1 2 C-3.64 2 -6.28 2 -9 2 C-9 1.34 -9 0.68 -9 0 C-3.375 -1.125 -3.375 -1.125 0 0 Z " fill="#199BCA" transform="translate(42,50)"/>
<path d="M0 0 C0.66 0 1.32 0 2 0 C0.9024777 2.99324263 0.32317108 3.84610901 -2.625 5.25 C-3.40875 5.4975 -4.1925 5.745 -5 6 C-5 5.01 -5 4.02 -5 3 C-3.68 3 -2.36 3 -1 3 C-0.67 2.01 -0.34 1.02 0 0 Z " fill="#73BBD7" transform="translate(51,33)"/>
</svg>
